<?xml version="1.0" encoding="UTF-8" standalone="no"?>
<svg
   xmlns:dc="http://purl.org/dc/elements/1.1/"
   xmlns:cc="http://creativecommons.org/ns#"
   xmlns:rdf="http://www.w3.org/1999/02/22-rdf-syntax-ns#"
   xmlns:svg="http://www.w3.org/2000/svg"
   xmlns="http://www.w3.org/2000/svg"
   xmlns:sodipodi="http://sodipodi.sourceforge.net/DTD/sodipodi-0.dtd"
   xmlns:inkscape="http://www.inkscape.org/namespaces/inkscape"
   width="148.16667mm"
   height="139.85118mm"
   viewBox="0 0 148.16667 139.85118"
   version="1.1"
   id="svg8"
   inkscape:version="1.0.2-2 (e86c870879, 2021-01-15)"
   sodipodi:docname="dnews.svg">
  <defs
     id="defs2" />
  <sodipodi:namedview
     id="base"
     pagecolor="#ffffff"
     bordercolor="#666666"
     borderopacity="1.0"
     inkscape:pageopacity="0.0"
     inkscape:pageshadow="2"
     inkscape:zoom="0.75811588"
     inkscape:cx="265.42184"
     inkscape:cy="249.83126"
     inkscape:document-units="mm"
     inkscape:current-layer="layer1"
     inkscape:document-rotation="0"
     showgrid="false"
     inkscape:window-width="1920"
     inkscape:window-height="1051"
     inkscape:window-x="-9"
     inkscape:window-y="1341"
     inkscape:window-maximized="1"
     inkscape:snap-page="false"
     inkscape:pagecheckerboard="true"
     fit-margin-top="0"
     fit-margin-left="0"
     fit-margin-right="0"
     fit-margin-bottom="0" />
  <metadata
     id="metadata5">
    <rdf:RDF>
      <cc:Work
         rdf:about="">
        <dc:format>image/svg+xml</dc:format>
        <dc:type
           rdf:resource="http://purl.org/dc/dcmitype/StillImage" />
        <dc:title></dc:title>
      </cc:Work>
    </rdf:RDF>
  </metadata>
  <g
     inkscape:label="Layer 1"
     inkscape:groupmode="layer"
     id="layer1"
     transform="translate(-34.773804,-82.398811)">
    <ellipse
       style="fill:#e6e6e6;stroke-width:0.264583"
       id="path10"
       cx="108.85714"
       cy="152.3244"
       rx="74.083336"
       ry="69.925591" />
    <path
       style="fill:#000000;stroke-width:0.264583"
       id="path14"
       d="m 55.919441,202.97377 c 1.248992,-0.63861 2.531975,-1.20828 3.795469,-1.81742 2.288058,-0.73244 3.849259,-2.19527 5.727885,-3.41895 0.496819,-0.2733 0.259617,-0.12587 0.712864,-0.44024 0.890209,-0.62998 1.601243,-1.45201 2.367063,-2.21992 0.754153,-0.8049 1.541124,-1.58221 2.274374,-2.40635 0.461627,-0.64668 0.998387,-1.23085 1.499778,-1.84337 0.672396,-0.70896 1.140682,-1.55017 1.608182,-2.39773 0.448617,-0.94118 1.075619,-1.77001 1.47733,-2.735 0.335714,-0.64224 0.701072,-1.25871 0.955183,-1.94107 0.448469,-0.70966 0.709176,-1.51742 1.072163,-2.27205 0.28929,-0.71309 0.661408,-1.3881 0.931535,-2.10898 0.340913,-0.65677 0.583075,-1.36799 0.845809,-2.06096 0.265626,-0.80533 0.514339,-1.61612 0.816404,-2.40836 0.325977,-0.99884 0.592637,-2.01352 0.737163,-3.05457 0.126016,-0.81359 0.133435,-1.60629 -0.246253,-2.34878 -0.416025,-0.62542 -0.979736,-1.10763 -1.638387,-1.45807 -0.789149,-0.31866 -1.653021,-0.34388 -2.49278,-0.37424 -0.696669,-0.0172 -1.393632,-0.0108 -2.090425,-0.007 -0.714312,0.0428 -1.399326,-0.007 -2.092571,-0.17892 -0.928111,-0.16415 -1.803543,-0.48822 -2.67843,-0.82424 -1.009436,-0.45959 -2.062565,-0.77065 -3.131341,-1.05382 -0.82641,-0.18736 -1.595959,-0.53937 -2.342465,-0.93081 -1.439952,-0.83776 -2.387859,-2.26596 -3.290173,-3.62559 -1.133364,-1.8851 -1.991265,-3.91567 -2.8135,-5.95041 -1.208934,-3.0645 -2.033058,-6.25797 -2.857733,-9.44121 -0.22792,-1.3376 -1.097904,-3.12202 -0.645445,-4.4636 0.793882,-0.92899 1.919496,-1.49917 2.935351,-2.15028 1.177157,-0.70715 2.263145,-1.54569 3.318256,-2.41977 0.789612,-0.86008 1.171551,-1.99745 1.629383,-3.05252 0.08798,-0.19866 0.171664,-0.39928 0.26393,-0.59599 0.256098,-0.54599 0.338061,-0.60745 0.527076,-1.19327 0.241943,-0.74986 0.343146,-1.54469 0.500457,-2.31466 0.326189,-1.40006 0.397555,-2.83516 0.444905,-4.26608 0.01966,-1.53062 0.03245,-3.0614 0.02919,-4.59215 -0.04036,-0.98493 0.06574,-1.98112 -0.05184,-2.963 -0.01714,-0.14327 -0.299016,-1.66052 -0.315886,-1.75213 -0.440094,-2.09391 -0.964864,-4.16738 -1.457692,-6.24903 -0.231728,-1.23207 -0.471739,-2.46621 -0.630436,-3.71065 -0.139386,-0.70945 -0.259258,-1.42481 -0.614305,-2.06219 -0.234841,-0.43418 -0.592918,-0.78039 -0.914831,-1.14901 -0.433364,-0.32198 -0.616752,-0.82415 -0.944293,-1.23022 -0.05024,-0.0606 -0.10048,-0.12125 -0.150719,-0.18187 0,0 -4.122068,2.47277 -4.122068,2.47277 v 0 c 0.05166,0.0626 0.103325,0.12521 0.154987,0.18781 0.352047,0.38241 0.490905,0.93011 0.946187,1.23054 0.296005,0.35159 0.639136,0.66734 0.86817,1.06864 0.332665,0.57462 0.414226,1.24698 0.556823,1.886 0.180234,1.25288 0.435639,2.49698 0.695436,3.73482 0.539433,2.05859 1.074253,4.11716 1.453089,6.21321 0.03634,0.22017 0.242396,1.43576 0.26887,1.71189 0.09377,0.97796 -0.0036,1.96603 0.03345,2.94576 5e-6,1.52488 0.02048,3.05033 -0.03423,4.57461 -0.05696,1.40786 -0.16406,2.8142 -0.472258,4.19306 -0.0692,0.34205 -0.239815,1.21398 -0.331173,1.55026 -0.235673,0.86748 -0.670737,1.65093 -1.02352,2.47221 -0.451575,1.02154 -0.85259,2.11114 -1.728499,2.8535 -1.043212,0.86311 -2.15392,1.64179 -3.306783,2.35192 -1.040321,0.6597 -2.356485,1.3108 -2.837577,2.51087 -0.2266,1.57377 0.563139,3.08918 0.887685,4.59782 0.887,3.18586 1.688055,6.4023 2.859754,9.50063 0.80487,2.07875 1.664526,4.14515 2.821358,6.0576 0.93345,1.41873 1.906704,2.91023 3.35266,3.85269 0.753697,0.44661 1.549331,0.83549 2.409542,1.02737 1.053785,0.28817 2.119577,0.51732 3.10194,1.01944 0.889812,0.32217 1.750515,0.73048 2.699015,0.87044 0.717102,0.19329 1.399738,0.37608 2.152763,0.28777 0.696479,-0.004 1.392955,-0.0118 2.089449,-0.009 0.79307,0.0102 1.599743,0.0143 2.372413,0.21277 0.604608,0.25116 1.09378,0.65421 1.469422,1.19442 0.330343,0.64492 0.223303,1.37849 0.130109,2.07219 -0.169371,1.0132 -0.429668,2.00612 -0.783712,2.97138 -0.280601,0.79937 -0.544803,1.60412 -0.826114,2.40317 -0.272992,0.69153 -0.534045,1.38763 -0.855514,2.05862 -0.301218,0.6987 -0.628565,1.38613 -0.933215,2.08343 -0.341159,0.77188 -0.668805,1.54945 -1.072049,2.29177 -0.302276,0.65056 -0.653015,1.27326 -0.949568,1.92596 -0.440095,0.92598 -1.035709,1.76445 -1.480902,2.68865 -0.473856,0.83586 -1.016156,1.62002 -1.67282,2.32535 -0.517293,0.58973 -0.9704,1.23183 -1.490184,1.81991 -0.749371,0.79869 -1.490882,1.60557 -2.265251,2.38015 -0.762863,0.76659 -1.504561,1.55935 -2.427531,2.14043 -1.56227,0.98821 -5.107583,3.34846 1.725321,-0.84829 -1.241705,0.63056 -2.514968,1.2002 -3.781986,1.77754 0,0 -3.723732,3.00526 -3.723732,3.00526 z" />
    <path
       style="fill:#000000;stroke-width:0.264583"
       id="path16"
       d="m 154.34036,101.58679 c -2.29744,2.33754 -4.95432,4.2879 -7.57611,6.24101 -1.5062,1.12007 -3.04921,2.19257 -4.51355,3.36824 -0.64562,0.51833 -1.24658,1.01157 -1.78841,1.63712 -0.19528,0.22546 -0.35489,0.47949 -0.53233,0.71923 -0.594,1.04326 -0.86724,2.24848 -0.75825,3.44415 0.0848,0.8656 0.72973,1.43836 1.2777,2.04586 0.54932,0.53911 1.22591,0.91444 1.83694,1.37482 0.86231,0.57668 1.19641,1.52535 1.46675,2.47965 0.0849,0.67369 0.41739,1.57519 0.23377,2.25582 -0.0299,0.11067 -0.0988,0.20689 -0.14817,0.31033 -0.0819,0.12831 -0.14844,0.26778 -0.24561,0.38493 -0.22749,0.27428 -0.95077,0.91889 -1.1596,1.10211 -1.06658,0.9358 -2.19132,1.77705 -3.33513,2.61521 -1.04632,0.72623 -1.47857,1.05131 -2.5583,1.70436 -0.42147,0.2549 -1.70362,0.98945 -1.28234,0.73423 0.91388,-0.55367 1.8719,-1.03611 2.76039,-1.62969 0.34976,-0.23367 -0.75619,0.36883 -1.13784,0.5457 -0.3348,0.15516 -0.6742,0.30018 -1.01129,0.45027 -0.78867,0.37026 -1.60436,0.67198 -2.42687,0.95581 0,0 -3.73888,2.90535 -3.73888,2.90535 v 0 c 0.84687,-0.27465 1.68951,-0.56291 2.49303,-0.95128 0.29229,-0.12888 1.97794,-0.86671 2.20111,-0.98904 3.0662,-1.68062 6.15796,-3.37131 8.99416,-5.42902 1.16315,-0.86313 2.32297,-1.72357 3.39601,-2.69933 0.43033,-0.39132 0.84601,-0.77379 1.16095,-1.26648 0.0934,-0.14617 0.14754,-0.31402 0.22131,-0.47103 0.20145,-0.93993 -0.0148,-1.88714 -0.24097,-2.80799 -0.30816,-1.02063 -0.67666,-2.10682 -1.58631,-2.74845 -0.56949,-0.47761 -1.24428,-0.80662 -1.79966,-1.30491 -0.47859,-0.5341 -1.0744,-1.00106 -1.12325,-1.77048 -0.0555,-1.10372 0.22561,-2.18261 0.84818,-3.1021 1.84792,-2.27173 4.44565,-3.75886 6.72706,-5.5449 2.68285,-2.00969 5.39955,-4.02093 7.75249,-6.419404 0,0 -4.40698,1.859904 -4.40698,1.859904 z" />
    <path
       style="fill:#ffffff;stroke-width:0.264583"
       id="path18"
       d="m 83.133401,113.7375 c -0.03139,0.1721 -0.04681,0.34789 -0.09417,0.5163 -0.216003,0.76813 -0.699997,2.10941 -1.163642,2.73864 -0.130676,0.17734 -0.311315,0.31175 -0.466972,0.46762 -1.99105,1.01795 0.791573,-0.38977 3.02635,-1.85467 0.130381,-0.0855 -0.302456,0.0878 -0.458248,0.0935 -0.455605,0.0168 -0.757994,-0.21237 -1.078527,-0.49305 -0.651827,-0.83981 -0.287115,-1.17734 0.334312,-1.86307 1.428136,-1.39921 5.164836,-3.35395 -2.032513,0.84451 0.623829,-0.31438 1.24724,-0.64713 1.926074,-0.82355 0.142057,-0.008 1.353307,-0.18304 0.859787,0.22519 -1.051867,0.52891 -2.04752,1.14225 -2.927397,1.92798 -0.426271,0.35862 -0.530008,0.76026 -0.611783,1.2797 0,0 4.316391,-2.07251 4.316391,-2.07251 v 0 c 0.145973,-0.41361 0.343689,-0.71382 0.703051,-0.98933 0.498856,-0.39641 0.488683,-0.40819 1.048761,-0.76603 0.517339,-0.33055 1.20066,-0.6047 1.607386,-1.08495 0.09017,-0.10646 0.131434,-0.24614 0.197149,-0.36921 -0.01312,-1.01083 -0.497756,-1.02293 -1.359551,-1.02755 -0.734423,0.048 -1.371463,0.38266 -2.02401,0.70218 -2.199007,1.26254 -4.422412,2.15561 -6.087594,4.02898 -0.668901,0.95781 -0.736552,1.55203 -0.01685,2.49968 0.303594,0.29673 0.393364,0.42956 0.78671,0.62397 2.055122,1.01571 4.572148,-1.47302 6.16151,-2.73226 0.137883,-0.18726 0.293616,-0.36261 0.413645,-0.5618 0.620098,-1.02903 0.947002,-2.24344 1.255384,-3.39145 0,0 -4.315246,2.08117 -4.315246,2.08117 z" />
    <path
       style="fill:#000000;stroke-width:0.264583"
       id="path20"
       d="m 133.47298,180.77415 c -0.79091,-1.02668 -0.94979,-2.2542 -0.069,-3.2987 0.21852,-0.25914 0.49683,-0.46128 0.74524,-0.69191 -0.6153,0.25547 2.71044,-1.67002 2.04175,-1.23827 -0.9224,0.59555 -1.93016,1.06145 -2.81107,1.71682 -0.3508,0.261 0.79769,-0.35906 1.20382,-0.52106 0.87218,-0.34792 1.44283,-0.51425 2.33165,-0.79913 1.24698,-0.29809 2.51259,-0.77151 3.81573,-0.70969 0.66603,0.0316 0.81707,0.12207 1.43975,0.31763 1.1576,0.56092 1.95471,1.5397 2.49828,2.67962 0.23874,0.78874 0.0392,1.37307 -0.48738,1.96843 -0.10157,0.0612 -0.20479,0.11969 -0.30473,0.1835 -1.55655,0.99371 0.88222,-0.52616 -0.77259,0.47181 -0.15028,0.0906 -0.59465,0.37276 -0.44264,0.28506 3.99823,-2.30678 4.538,-2.53476 2.59191,-1.60861 -1.75878,0.84642 -3.57812,1.5415 -5.43171,2.14637 -0.78263,0.17876 -1.60034,0.65945 -2.43104,0.51836 -0.3608,-0.0613 -0.51413,-0.20232 -0.81901,-0.39401 -0.58129,-0.55383 -0.87742,-1.31181 -1.28052,-1.9882 -0.26377,-0.44261 -0.41012,-0.6118 -0.71788,-1.01589 -0.50349,-0.59985 -1.13971,-0.94293 -1.87478,-1.17443 -0.45259,-0.14254 -0.30258,-0.0193 -0.44395,-0.14289 1.681,0.7164 0.2503,-0.019 -3.12551,2.28135 -0.2513,0.17125 0.56968,-0.21445 0.86105,-0.30157 0.37841,-0.11314 0.76261,-0.20638 1.14663,-0.29873 0.59332,-0.14267 2.14783,-0.47289 2.73332,-0.59873 2.23695,-0.4921 4.46947,-0.99926 6.68434,-1.58225 0.14796,-0.0324 0.29592,-0.0647 0.44389,-0.0971 0.0271,-0.0117 0.10285,-0.0151 0.0812,-0.0351 -0.11698,-0.10851 -0.24151,-0.26762 -0.40095,-0.26146 -0.0399,0.002 -1.6683,1.04181 -1.75186,1.09315 7.21727,-3.9143 1.06071,-0.89047 -0.61258,-0.009 -1.46141,0.90065 -2.98223,1.71135 -4.38423,2.70194 -0.11558,0.0817 -0.0658,0.28399 -0.0383,0.42281 0.12413,0.62667 0.77583,0.88445 1.29712,1.0656 0.31871,0.0706 0.6008,0.15337 0.93333,0.14023 1.71317,-0.0677 5.90655,-3.16603 5.91454,-3.17093 -0.007,-0.11378 0.0225,-0.23596 -0.0209,-0.34135 -0.31363,-0.76035 -1.41411,-0.72502 -2.07462,-0.76909 -0.65543,-0.0146 -1.31324,-0.023 -1.96282,-0.12117 -0.0666,-0.0101 -0.21597,-0.10707 -0.19759,-0.0423 0.0443,0.15599 0.42463,0.28883 0.29525,0.38656 -1.20845,0.91283 -2.59846,1.55642 -3.8977,2.33463 0.47917,-0.0666 0.96584,-0.0968 1.44965,-0.0983 0.1582,-5.3e-4 0.31684,2.7e-4 0.47438,0.0149 0.0471,0.004 0.1776,0.0631 0.13563,0.0414 -0.0725,-0.0376 -0.15211,-0.0596 -0.22817,-0.0893 -0.119,0.0382 -0.24233,0.065 -0.357,0.11473 -0.16497,0.0715 -0.63281,0.34122 -0.47912,0.24789 4.32811,-2.62819 4.59498,-2.49805 2.81602,-1.79333 -0.20682,0.0819 -0.41474,0.16118 -0.62416,0.23617 -0.18992,0.068 -0.38244,0.12849 -0.57366,0.19274 -0.23114,0.0638 -1.78106,0.58633 -1.85846,0.1356 -0.0165,-0.0961 0.0539,-0.18742 0.0809,-0.28113 0.0911,-0.14456 0.1674,-0.29966 0.27346,-0.43367 0.26294,-0.33223 0.67325,-0.70502 1.00525,-0.96135 0.18078,-0.13958 0.76278,-0.50158 0.56423,-0.38871 -4.62319,2.62819 -4.7264,2.67226 -3.30854,1.96666 0.0125,-0.0247 0.0518,-0.0504 0.0375,-0.0742 -0.12669,-0.21024 -0.10295,0.34165 -0.0618,0.42957 0.14011,0.29911 0.25529,0.33015 0.51087,0.50695 0.20842,0.0628 0.43456,0.16983 0.6603,0.16131 0.0152,-5.3e-4 -0.041,-0.0235 -0.0449,-0.009 -0.0106,0.0406 -0.0123,0.0927 0.0144,0.12515 0.093,0.11308 0.21901,0.19444 0.32852,0.29165 0.17846,0.0318 0.35428,0.0877 0.53539,0.0954 1.49748,0.0636 3.41931,-0.42669 4.88106,-0.74058 0.973,-0.18043 1.90078,-0.55098 2.87525,-0.72349 0.088,-0.0156 0.20205,0.0496 0.26775,-0.011 0.0458,-0.0422 -0.10654,-0.0857 -0.16857,-0.0804 -0.15617,0.0134 -0.3006,0.089 -0.4509,0.13343 6.77813,-3.82076 2.85159,-1.69622 1.30964,-0.99741 -0.76354,0.34603 -1.53031,0.65913 -2.32398,0.92701 -0.0611,0.0165 -0.19856,-0.012 -0.1833,0.0495 0.0303,0.12216 0.17529,0.18069 0.26293,0.27103 -1.22938,0.78507 -2.47176,1.55017 -3.68815,2.35523 -0.15347,0.10157 0.32596,-0.17211 0.49599,-0.24253 0.42396,-0.1756 0.77811,-0.26722 1.21456,-0.39491 0.12477,-0.0179 0.24954,-0.0359 0.3743,-0.0538 2.5e-4,-0.008 0.009,-0.0248 8e-4,-0.0244 -0.32893,0.0151 -0.27602,0.0814 -0.62707,0.28501 -0.20172,0.11698 -0.81422,0.45488 -0.61346,0.33624 1.08681,-0.64226 2.18125,-1.2715 3.27188,-1.90725 -0.70936,0.4121 -1.43301,0.79476 -2.17878,1.13613 -0.10151,0.0465 -0.21993,0.0647 -0.3063,0.13545 -1.09951,0.90043 -2.22424,1.7771 -3.24124,2.76978 -0.19938,0.19461 0.50667,-0.23193 0.76001,-0.3479 2.33589,-1.12866 2.81717,-1.28701 5.13738,-3.70121 0.009,-0.01 -1.54894,0.48171 -1.55469,0.48351 -1.78494,0.54161 -0.92384,0.22265 -3.88302,2.96706 -0.14251,0.13217 0.3763,-0.0975 0.56403,-0.14786 0.18692,-0.0501 0.37287,-0.10392 0.55991,-0.15362 0.0804,-0.0214 0.17614,-0.009 0.24239,-0.0596 1.22708,-0.93233 2.41358,-1.9169 3.62038,-2.87535 -0.75157,0.24683 -1.49401,0.51968 -2.25114,0.74965 -0.18759,0.057 -0.37621,0.11084 -0.56617,0.15933 -0.081,0.0207 -0.21065,-0.0277 -0.24607,0.048 -0.0294,0.0629 0.10862,0.0864 0.16293,0.12966 0.0188,0.12368 1.01933,-0.49857 0.77486,-0.35407 -1.13139,0.66877 -2.2699,1.32546 -3.40027,1.99596 -0.2207,0.13091 0.44936,-0.24802 0.67113,-0.37712 4.58505,-2.66934 3.16323,-1.76099 5.10968,-3.01757 -0.0131,-0.0986 0.0418,-0.23834 -0.0393,-0.29595 -0.66711,-0.47355 -0.94453,-0.22177 -1.63821,0.0401 -0.35078,0.13239 -0.69531,0.28084 -1.04107,0.42584 -2.09487,0.87847 -0.009,0.0324 -1.90813,0.79523 -0.18262,0.0629 -0.37162,0.10955 -0.54784,0.18858 -0.18782,0.0842 0.38284,0.25818 0.58203,0.20631 0.27297,-0.0711 0.46446,-0.32021 0.69641,-0.48072 1.25141,-0.86604 0.65895,-0.43335 1.89529,-1.39441 -0.88023,0.43862 2.25882,-1.55455 1.65897,-1.2206 -1.19391,0.66465 -2.34587,1.40243 -3.53395,2.07744 -0.0259,0.0147 0.0182,-0.0567 0.0272,-0.0851 -0.1133,0.0171 -0.24777,-0.0168 -0.33988,0.0513 -0.18317,0.13549 -0.29226,0.34959 -0.43839,0.52439 -0.38414,0.43805 -0.6742,0.79867 -1.11127,1.18332 -0.12165,0.10705 -0.54139,0.35184 -0.39374,0.28509 4.45723,-2.01488 3.76062,-1.19007 5.73651,-3.42502 0.20055,-0.23919 0.39298,-0.48543 0.60164,-0.71758 0.17185,-0.19121 0.3433,-0.38496 0.53907,-0.5516 0.11298,-0.0962 0.51318,-0.29723 0.38041,-0.23104 -2.94969,1.47058 -3.99122,1.02032 -4.90471,3.04614 0.0744,0.13718 0.0875,0.33433 0.22314,0.41155 0.53836,0.30657 1.08999,-0.0212 1.54404,-0.27452 1.68859,-0.94202 3.35016,-1.9317 5.02043,-2.90584 0.32519,-0.18965 1.29129,-0.77456 0.96579,-0.58543 -1.12067,0.65111 -2.23426,1.31433 -3.35139,1.97149 0.0939,-0.0366 0.23471,-0.0205 0.28157,-0.1097 0.1323,-0.25172 -0.32115,-0.12062 -0.44977,-0.0398 -0.13734,0.0863 -0.23232,0.22961 -0.36823,0.31817 -0.13897,0.0906 -0.59005,0.30176 -0.44904,0.21441 1.23625,-0.76572 2.49132,-1.50064 3.73697,-2.25095 -0.0874,-0.0363 -0.19667,-0.0408 -0.26229,-0.10903 -0.39049,-0.40617 -0.76327,-1.95872 -0.54956,-2.4634 -1.38049,0.82376 -2.85216,1.51105 -4.14146,2.47127 -0.13735,0.10229 0.11638,0.32213 0.17438,0.48326 0.24141,0.67067 0.44912,1.35519 0.81101,1.9724 0.0805,-0.0334 0.72116,0.83665 0.35469,0.48812 1.3303,-0.83463 2.71945,-1.58205 3.99087,-2.50387 0.0362,-0.0263 -0.33426,-0.2615 -0.65379,-0.30317 -0.41373,-0.0539 -0.78713,0.13578 -1.14933,0.29941 -0.40171,0.21957 -0.84022,0.35059 -1.27462,0.48634 0,0 -3.77175,2.92403 -3.77175,2.92403 v 0 c 0.43794,-0.14516 0.8945,-0.21472 1.30659,-0.42594 0.32143,-0.16752 0.6363,-0.38698 0.98232,-0.5015 0.0827,-0.0274 0.16871,-0.0657 0.25523,-0.0557 0.0851,0.01 0.15269,0.14522 0.2315,0.11163 1.50886,-0.64324 2.9648,-1.40414 4.4472,-2.10621 -0.0986,-0.2729 -0.21919,-0.62278 -0.42831,-0.831 -0.0344,-0.0342 -0.11603,0.0695 -0.14559,-0.002 -0.39469,-0.5475 -0.58104,-1.21182 -0.78174,-1.84902 -0.0584,-0.18533 0.0168,-0.61855 -0.16789,-0.55819 -1.52189,0.49739 -2.9006,1.3567 -4.3509,2.03504 0.10026,0.94725 0.21779,2.12144 0.83092,2.90023 0.12039,0.15292 0.29638,0.25234 0.44457,0.3785 1.51968,-0.77136 3.05318,-1.51609 4.55904,-2.3141 0.20316,-0.10767 0.65275,-0.51973 0.75705,-0.72382 0.14395,-0.28167 0.23745,-0.74266 -0.12861,-0.95158 -0.11651,-0.0665 -0.26596,0.0353 -0.39893,0.0529 -1.57023,0.89324 -3.14447,1.77945 -4.71069,2.67971 -0.32503,0.18683 -1.29136,0.76193 -0.96278,0.5814 1.0182,-0.55943 2.02569,-1.13825 3.03223,-1.71842 0.2517,-0.14508 -0.53255,0.24211 -0.76749,0.41301 -0.13094,0.0953 -0.20972,0.24678 -0.31205,0.37226 -0.01,0.0117 -0.0155,0.0259 -0.0233,0.0389 0.014,-0.0282 0.43937,-0.86812 0.4008,-0.85785 -3.86115,1.02862 -3.87134,0.93027 -5.70959,3.11937 -0.20998,0.23411 -0.42386,0.46477 -0.62994,0.70231 -0.17477,0.20147 -0.7716,0.67751 -0.51245,0.6145 3.55642,-0.86476 3.88115,-0.95869 5.60505,-3.0658 0.14352,-0.21467 0.35434,-0.39729 0.43055,-0.64402 0.13784,-0.44627 -0.017,-1.11292 -0.32781,-0.95866 -2.28032,1.13178 -4.24236,2.32344 -6.16935,3.86301 -2.43393,1.82127 0.48243,-0.34269 -1.94251,1.39995 -0.24648,0.17713 -0.56353,0.29219 -0.72753,0.54759 -0.23465,0.36545 -0.27073,0.94782 0.0822,0.91039 0.21025,-0.0223 0.40138,-0.13308 0.60207,-0.19962 1.32431,-0.51936 0.5328,-0.19614 1.92908,-0.80017 0.33368,-0.14435 0.66427,-0.2962 1.00193,-0.43098 0.20484,-0.0818 1.39112,-0.29499 0.95527,-0.91273 -1.54275,0.99224 -0.69304,0.4347 3.01382,-1.68708 0.222,-0.12707 -0.44739,0.24816 -0.6689,0.37608 -1.57182,0.90765 -3.1593,1.789 -4.71103,2.73058 -0.17449,0.10588 -0.34315,0.23757 -0.45826,0.40612 -0.0917,0.13427 -0.0923,0.31179 -0.13849,0.46769 0.0757,0.15168 0.0952,0.34872 0.22726,0.45506 0.12427,0.10006 0.7556,-0.11914 0.93335,-0.17122 0.73453,-0.21521 1.4488,-0.48348 2.18516,-0.69134 1.33136,-0.99878 2.68543,-1.96798 3.99408,-2.99635 0.0765,-0.0601 -0.18762,0.0517 -0.28114,0.0786 -0.18424,0.053 -0.36721,0.11052 -0.55212,0.16118 -0.17674,0.0484 -0.38068,0.0337 -0.53268,0.13603 -4.9579,3.33865 -5.65224,3.5338 -3.66716,2.83739 2.97627,-0.96684 1.40605,-0.2474 5.82936,-3.56723 0.11019,-0.0827 -0.25929,0.0941 -0.38464,0.15125 -0.37485,0.17097 -1.23948,0.61328 -1.59092,0.79104 -2.2533,1.11068 -0.77293,0.32759 -4.95843,3.51576 -0.10013,0.0763 0.21686,-0.1287 0.33096,-0.18186 0.75267,-0.35071 1.52145,-0.66792 2.22565,-1.11732 1.60572,-0.92454 3.22239,-1.83032 4.81716,-2.77363 0.48542,-0.28712 1.15682,-0.72779 0.93536,-1.40494 -0.13388,-0.40935 -0.38667,-0.30732 -0.7207,-0.3223 -2.59694,0.72005 -3.23995,1.02862 -6.13735,3.27628 -0.13998,0.10859 0.0881,0.3617 0.21371,0.48663 0.0695,0.0692 0.19578,0.012 0.29367,0.018 3.28521,-1.05281 6.27855,-2.84298 9.19047,-4.65016 0.10198,-0.18253 0.28428,-0.33963 0.30593,-0.54759 0.11715,-1.12565 -2.01212,-0.1963 -2.35879,-0.10025 -0.38693,0.10721 -0.77711,0.20236 -1.16566,0.30354 -1.69181,0.37544 -3.39207,0.70844 -5.12392,0.82645 -0.0303,0.029 -0.0566,0.11113 -0.091,0.087 -0.051,-0.0358 -0.0216,-0.12363 -0.044,-0.18179 -0.0389,-0.1007 -0.0737,-0.20659 -0.13916,-0.29246 -0.18451,-0.24211 -0.42918,-0.15659 -0.68932,-0.18332 -0.0661,-0.008 -0.22378,0.006 -0.26092,-0.0943 -0.14585,-0.39227 0.11235,-0.78654 -0.45245,-1.07168 -2.01454,0.50651 -0.54363,0.10403 -4.88281,2.73726 -0.56981,0.34578 -1.18475,0.9836 -1.48924,1.57619 -0.0999,0.19436 -0.13679,0.41507 -0.20517,0.62261 0.0251,0.19312 0.003,0.39853 0.0753,0.57935 0.36843,0.92118 1.52525,0.4816 2.20496,0.31233 2.54157,-0.7845 3.87214,-1.73679 6.58572,-3.26056 0.16583,-0.0931 0.33637,-0.18564 0.47559,-0.3152 0.11377,-0.10589 0.1806,-0.25301 0.27089,-0.37951 -0.0318,-0.16066 -0.0155,-0.33898 -0.0953,-0.48197 -0.26619,-0.47671 -1.76055,-0.17814 -2.24755,-0.22504 -1.46795,0.80353 -3.02584,1.46108 -4.40387,2.41061 -0.51511,0.35494 0.42484,0.54429 0.46561,0.55105 0.28181,0.0467 1.03,0.10366 1.2537,0.11542 0.24569,0.0129 0.49185,0.0139 0.73778,0.0209 0.45582,0.0223 0.90653,0.0435 1.35781,0.11411 0.072,0.0113 0.14213,0.0418 0.21499,0.0399 0.0211,-5.3e-4 0.0638,-0.0491 0.0429,-0.0466 -0.0338,0.004 -0.0585,0.0347 -0.0877,0.0521 1.27485,-0.72449 2.54624,-1.4551 3.82454,-2.17347 0.15333,-0.0862 -0.29524,0.19177 -0.44926,0.27667 -0.59943,0.33041 -1.15142,0.58597 -1.84385,0.40307 -0.29374,-0.0651 -0.40417,-0.0699 -0.66665,-0.19615 -0.0118,-0.006 -0.27654,-0.12071 -0.24545,-0.22964 0.0198,-0.0694 0.19125,-0.20897 0.12752,-0.17506 -1.25942,0.67005 -2.48858,1.39547 -3.73287,2.0932 2.85673,-1.64996 6.06773,-2.63101 8.71504,-4.67934 0.26452,-0.16532 1.6629,-0.94854 1.77847,-1.24332 0.31867,-0.81286 -0.38965,-0.7509 -0.80022,-0.63109 -0.56721,0.15345 -1.12697,0.33376 -1.69481,0.48488 -1.66834,0.444 -3.37323,0.7507 -5.04736,1.17127 -0.90413,0.19186 -1.81021,0.37451 -2.71397,0.56811 -0.043,0.009 -1.82901,0.39352 -2.00279,0.48348 -1.58348,0.81969 -3.17667,1.63759 -4.65766,2.63055 -0.14851,0.0996 -0.0404,0.35529 -0.0607,0.53293 0.0723,0.0848 0.11892,0.20119 0.21677,0.25449 0.12262,0.0668 0.27397,0.0544 0.4098,0.0869 0.66914,0.15968 1.2544,0.39358 1.72364,0.92161 0.27778,0.35368 0.45238,0.55361 0.68566,0.94327 0.44297,0.73992 0.77042,1.56139 1.3823,2.18951 1.39049,1.04312 1.97444,0.70675 3.54426,0.20354 1.85619,-0.61211 3.70339,-1.24591 5.46387,-2.1069 2.46672,-1.05858 0.71395,-0.26945 5.5447,-3.04833 0.41052,-0.23615 0.86104,-0.50281 1.21193,-0.82498 0.0964,-0.0885 0.17457,-0.19499 0.26186,-0.29249 0.45473,-0.75686 0.56453,-1.58383 0.23405,-2.42127 -0.62285,-1.22991 -1.49443,-2.30267 -2.71994,-2.97687 -0.24686,-0.0941 -0.48641,-0.21024 -0.74059,-0.28229 -1.60111,-0.45387 -3.18861,0.0729 -4.74239,0.46715 -1.19248,0.36851 -2.47712,0.69302 -3.58819,1.2765 -1.7481,0.91802 -3.46452,1.89528 -5.1873,2.85998 -1.14361,0.64038 -1.01215,0.59565 -2.02009,1.37053 -0.23658,0.27261 -0.51178,0.51601 -0.70973,0.81785 -0.81598,1.24428 -0.53268,2.64727 0.25172,3.81078 0,0 4.11643,-2.4429 4.11643,-2.4429 z" />
    <path
       style="fill:#000000;stroke-width:0.264583"
       id="path22"
       d="m 89.483283,219.46603 c 2.954587,-0.9249 6.026566,-1.43582 9.062644,-2.02074 2.979613,-0.47453 5.915563,-1.15347 8.784463,-2.08382 2.28183,-0.81477 4.54665,-1.66833 6.85131,-2.41851 2.0581,-0.61764 4.1649,-1.04609 6.25225,-1.54963 1.60952,-0.36567 3.11697,-1.0268 4.59486,-1.74347 2.06953,-1.05347 4.11089,-2.13627 6.28752,-2.95524 2.03553,-0.71806 4.163,-1.11968 6.27905,-1.51792 1.75643,-0.37544 3.53547,-0.59251 5.33184,-0.52967 0.93543,0.069 1.93288,0.19145 2.61552,0.88952 0.48143,0.64709 0.0394,1.32811 -0.0193,2.02946 0.18315,1.14105 1.63342,1.13559 2.53826,1.2246 1.46093,0.15206 2.8925,-0.0397 4.26505,-0.54244 0.17932,-0.0829 0.36603,-0.15145 0.53796,-0.24877 4.10599,-2.32402 3.88035,-1.9922 6.33764,-4.15045 0.97973,-0.97247 1.92928,-1.96932 2.83497,-3.01293 0.66904,-0.92456 1.39428,-1.78649 2.21888,-2.57354 1.4327,-1.49103 6.12431,-4.02922 -1.31522,0.34909 0,0 3.76018,-2.95577 3.76018,-2.95577 v 0 c -2.45949,1.36707 -4.88776,2.42615 -6.84394,4.42341 -0.80581,0.80923 -1.48437,1.71879 -2.20065,2.60618 -0.90258,1.02742 -1.84981,2.01303 -2.84714,2.94924 -0.45563,0.39796 -0.90292,0.81079 -1.39831,1.16006 -0.14213,0.10021 -0.58699,0.37257 -0.43514,0.28779 8.25956,-4.61125 4.17924,-2.37206 3.08649,-1.77343 -1.31356,0.57913 -2.69053,0.8706 -4.13436,0.72326 -0.26541,-0.0198 -1.98471,-0.10865 -2.09427,-0.38589 -0.0256,-0.0649 -0.006,-0.13947 -0.009,-0.2092 0.13161,-0.8356 0.38173,-1.63732 -0.19346,-2.38388 -0.78535,-0.88702 -1.71051,-1.06903 -2.85333,-1.1767 -1.82638,-0.10537 -3.64597,0.0843 -5.43254,0.47219 -2.1394,0.36711 -4.27914,0.80242 -6.34727,1.46895 -2.18638,0.77192 -4.23116,1.81866 -6.2823,2.89147 -1.4709,0.70526 -2.9345,1.43502 -4.532,1.81931 -2.10258,0.52439 -4.22273,0.97369 -6.3116,1.55232 -2.3084,0.74355 -4.58616,1.5635 -6.85547,2.41785 -2.87777,0.97234 -5.82143,1.71714 -8.82511,2.1903 -1.86251,0.35863 -3.728822,0.69982 -5.587483,1.07814 -0.877948,0.1787 -1.762011,0.33155 -2.631252,0.54869 -0.238712,0.0596 -0.468384,0.15091 -0.702574,0.22637 0,0 -3.787058,2.9238 -3.787058,2.9238 z" />
    <path
       style="fill:none;stroke:#000000;stroke-width:0.264583px;stroke-linecap:butt;stroke-linejoin:miter;stroke-opacity:1"
       d="m 87.342566,171.6785 16.386124,20.59541 7.96757,0.15033 14.28148,-21.34706 18.49077,-15.18348 0.60133,-3.45762 -1.95431,0.15033 -0.15033,-3.60796 2.10464,-0.45099 0.15033,-3.45762 -19.54309,-18.19011 -14.28148,-18.94176 -8.26823,0.15033 -16.034142,19.17319 -16.802102,18.21058 -0.305615,3.16243 1.714095,0.093 -0.06644,3.95969 -1.594506,0.1063 0.106299,3.17572 z"
       id="path64" />
    <path
       style="fill:none;stroke:#000000;stroke-width:0.264583px;stroke-linecap:butt;stroke-linejoin:miter;stroke-opacity:1"
       d="M 86.422208,127.93251 101.02273,142.5142 Z"
       id="path66" />
    <path
       style="fill:none;stroke:#000000;stroke-width:0.2778px;stroke-linecap:butt;stroke-linejoin:miter;stroke-opacity:1"
       d="m 125.67171,126.8838 -11.65918,15.23574 z"
       id="path68" />
    <ellipse
       style="fill:#000000;stroke-width:0.264583"
       id="path74"
       cx="107.59467"
       cy="149.17529"
       rx="8.3790455"
       ry="7.9898334" />
    <path
       style="fill:none;stroke:#000000;stroke-width:0.264583px;stroke-linecap:butt;stroke-linejoin:miter;stroke-opacity:1"
       d="M 125.97774,171.07718 113.36935,156.84621 Z"
       id="path76" />
    <path
       style="fill:none;stroke:#000000;stroke-width:0.264583px;stroke-linecap:butt;stroke-linejoin:miter;stroke-opacity:1"
       d="M 87.342566,171.6785 100.45386,156.73991 Z"
       id="path78" />
    <path
       style="fill:none;stroke:#000000;stroke-width:0.264583px;stroke-linecap:butt;stroke-linejoin:miter;stroke-opacity:1"
       d="m 71.699606,148.7275 25.03374,-0.33217 0.05315,4.67722 -25.153329,-0.38536 z"
       id="path80" />
    <path
       style="fill:none;stroke:#000000;stroke-width:0.264583px;stroke-linecap:butt;stroke-linejoin:miter;stroke-opacity:1"
       d="m 71.805905,150.73394 24.927441,0.1063 z"
       id="path82" />
    <path
       style="fill:none;stroke:#000000;stroke-width:0.264583px;stroke-linecap:butt;stroke-linejoin:miter;stroke-opacity:1"
       d="m 142.9652,148.97845 -23.48358,-0.15792 v 3.82681 l 23.63391,-0.0609 z"
       id="path84" />
    <path
       style="fill:none;stroke:#000000;stroke-width:0.264583px;stroke-linecap:butt;stroke-linejoin:miter;stroke-opacity:1"
       d="m 143.08031,150.73394 -23.70498,0.15945 z"
       id="path86" />
    <path
       style="fill:none;stroke:#000000;stroke-width:0.264583px;stroke-linecap:butt;stroke-linejoin:miter;stroke-opacity:1"
       d="m 101.02273,142.5142 -4.289384,5.88113 0.05315,4.67722 3.667364,3.66736 6.53747,1.8071 6.37802,-1.7008 6.11227,-4.19887 v -3.82681 l -5.46909,-6.70099 -5.9582,-2.60029 z"
       id="path88" />
    <rect
       style="opacity:1;fill:#00ffff;stroke-width:0.264583"
       id="rect92"
       width="7.7784095"
       height="7.8224039"
       x="179.00989"
       y="22.451155"
       transform="matrix(0.69295067,0.720985,-0.72058926,0.69336218,0,0)" />
    <rect
       style="opacity:1;fill:#000000;stroke-width:0.264583"
       id="rect94"
       width="3.6142128"
       height="3.7205133"
       x="180.63991"
       y="29.173376"
       transform="rotate(44.684554)"
       inkscape:transform-center-x="0.21260076" />
    <path
       style="fill:none;stroke:#000000;stroke-width:0.264583px;stroke-linecap:butt;stroke-linejoin:miter;stroke-opacity:1"
       d="m 107.62027,155.6621 0.25131,-2.70684 z"
       id="path96" />
    <path
       style="fill:#00ffff;stroke:#000000;stroke-width:0.264583px;stroke-linecap:butt;stroke-linejoin:miter;stroke-opacity:1"
       d="m 107.91819,147.76849 -0.0512,-3.13827 z"
       id="path98" />
    <ellipse
       style="opacity:1;fill:#00ffff;stroke-width:0.393534"
       id="path100"
       cx="107.90817"
       cy="150.49477"
       rx="1.0497162"
       ry="0.82382792" />
    <path
       style="fill:none;stroke:#000000;stroke-width:0.264583px;stroke-linecap:butt;stroke-linejoin:miter;stroke-opacity:1"
       d="m 103.72869,192.27391 4.05989,-5.82305 3.90768,5.97338 z"
       id="path102" />
    <path
       style="fill:none;stroke:#000000;stroke-width:0.264583px;stroke-linecap:butt;stroke-linejoin:miter;stroke-opacity:1"
       d="m 70.144959,155.96921 1.488207,-3.28202 z"
       id="path104" />
    <path
       style="fill:none;stroke:#000000;stroke-width:0.264583px;stroke-linecap:butt;stroke-linejoin:miter;stroke-opacity:1"
       d="m 70.291126,145.47207 1.40848,3.25543 z"
       id="path106" />
    <path
       style="fill:none;stroke:#000000;stroke-width:0.264583px;stroke-linecap:butt;stroke-linejoin:miter;stroke-opacity:1"
       d="m 103.12737,108.0883 4.02341,7.14131 4.24482,-7.29164 z"
       id="path108" />
    <path
       style="fill:none;stroke:#000000;stroke-width:0.264583px;stroke-linecap:butt;stroke-linejoin:miter;stroke-opacity:1"
       d="m 145.22017,145.06984 -2.25497,3.90861 z"
       id="path110" />
    <path
       style="fill:#4d4d4d;stroke:#000000;stroke-width:0.264583px;stroke-linecap:butt;stroke-linejoin:miter;stroke-opacity:1"
       d="m 143.11553,152.58641 1.35298,3.30729 z"
       id="path112" />
    <path
       style="opacity:1;fill:#4d4d4d;stroke-width:0.80353"
       d="m 391.08794,594.62876 -10.7331,-3.05716 -6.74368,-6.70865 -6.74368,-6.70865 v -8.66533 -8.66534 l 7.83442,-10.76298 7.83442,-10.76298 12.63406,-5.29798 c 6.94873,-2.9139 12.94252,-5.29799 13.31953,-5.29799 0.37701,0 5.44407,2.0865 11.26014,4.63667 l 10.57466,4.63668 10.05497,12.31295 10.05496,12.31295 v 7.00163 7.00162 l -11.45031,7.74476 c -11.24757,7.60763 -11.63921,7.79533 -22.11956,10.60056 -5.86809,1.57069 -11.6535,2.82893 -12.85648,2.7961 -1.20298,-0.0328 -7.01714,-1.43542 -12.92035,-3.11686 z m 21.61319,-0.84724 c 9.95177,-1.88732 17.84478,-7.57884 22.55447,-16.26366 2.6048,-4.80335 2.72432,-5.3939 2.72432,-13.46082 0,-7.61954 -0.21861,-8.88224 -2.25606,-13.03132 -3.10546,-6.32396 -8.35794,-11.47099 -14.83924,-14.5413 -5.05513,-2.39472 -5.97349,-2.55977 -14.24239,-2.55977 -8.20704,0 -9.21233,0.177 -14.06408,2.47633 -6.40266,3.03432 -12.00204,8.48382 -15.00895,14.60718 -2.02638,4.12659 -2.26466,5.45901 -2.26466,12.66401 0,7.47918 0.18795,8.43397 2.64101,13.41684 6.18033,12.55403 20.44701,19.40607 34.75558,16.69251 z"
       id="path114"
       transform="scale(0.26458333)" />
    <path
       style="opacity:1;fill:#ffff00;stroke-width:0.80353"
       d="m 397.26915,725.65351 -2.94484,-0.48862 6.51733,-9.34357 6.51733,-9.34356 6.27076,9.58821 c 3.44891,5.27351 6.27075,9.74931 6.27075,9.94621 0,0.52093 -19.16023,0.21728 -22.63133,-0.35867 z"
       id="path116"
       transform="scale(0.26458333)" />
    <path
       style="opacity:1;fill:#ffff00;stroke-width:0.80353"
       d="m 398.67079,422.32116 c -3.3406,-5.91823 -6.29702,-11.34206 -6.56982,-12.05296 -0.44389,-1.15676 0.95296,-1.29253 13.29742,-1.29253 7.58637,0 13.64079,0.27119 13.45426,0.60264 -4.18688,7.43978 -13.6486,23.50327 -13.8439,23.50327 -0.14528,0 -2.99736,-4.84219 -6.33796,-10.76042 z"
       id="path118"
       transform="scale(0.26458333)" />
    <path
       style="opacity:1;fill:#4d4d4d;stroke-width:0.80353"
       d="m 272.05088,566.14678 v -2.73145 l 9.84325,-0.45867 c 5.41379,-0.25227 26.20514,-0.63701 46.203,-0.85499 l 36.35975,-0.39632 v 3.58644 3.58643 h -46.203 -46.203 z"
       id="path120"
       transform="scale(0.26458333)" />
    <path
       style="opacity:1;fill:#4d4d4d;stroke-width:0.80353"
       d="m 313.4327,576.87085 c -16.35184,-0.2961 -32.35214,-0.58842 -35.55622,-0.64961 l -5.8256,-0.11124 v -2.92945 -2.92945 l 45.82884,0.41254 c 25.20586,0.22689 45.96496,0.55077 46.13134,0.71974 0.16637,0.16896 0.55578,1.66316 0.86536,3.32044 l 0.56284,3.01324 -11.13796,-0.15393 c -6.12589,-0.0847 -24.51675,-0.39619 -40.8686,-0.69228 z"
       id="path122"
       transform="scale(0.26458333)" />
    <path
       style="opacity:1;fill:#4d4d4d;stroke-width:0.80353"
       d="m 489.21603,570.71222 c 1.22142,-0.1847 3.02936,-0.17976 4.01765,0.011 0.9883,0.19073 -0.011,0.34184 -2.22075,0.33581 -2.20971,-0.006 -3.01831,-0.16208 -1.7969,-0.34677 z"
       id="path124"
       transform="scale(0.26458333)" />
    <path
       style="opacity:1;fill:#4d4d4d;stroke-width:0.80353"
       d=""
       id="path126"
       transform="scale(0.26458333)" />
    <path
       style="opacity:1;fill:#4d4d4d;stroke-width:0.80353"
       d="m 483.58027,569.10622 c 1.21534,-0.18411 3.20408,-0.18411 4.41942,0 1.21534,0.18411 0.22097,0.33474 -2.20971,0.33474 -2.43068,0 -3.42505,-0.15063 -2.20971,-0.33474 z"
       id="path128"
       transform="scale(0.26458333)" />
    <path
       style="opacity:1;fill:#4d4d4d;stroke-width:0.80353"
       d="m 452.84523,566.59496 v -3.34145 l 11.45031,10e-4 c 6.29767,6e-4 25.82346,0.24017 43.39064,0.53238 l 31.94034,0.53127 v 2.27998 2.27998 h -27.59259 c -15.17592,0 -34.70171,0.23809 -43.39064,0.5291 l -15.79806,0.52909 z"
       id="path130"
       transform="scale(0.26458333)" />
    <path
       style="opacity:1;fill:#4d4d4d;stroke-width:0.80353"
       d="m 452.84523,573.83002 v -2.27998 l 31.94034,-0.53128 c 17.56718,-0.2922 37.09297,-0.53177 43.39064,-0.53238 l 11.45031,-0.001 v 2.81236 2.81236 h -43.39065 -43.39064 z"
       id="path132"
       transform="scale(0.26458333)" />
    <path
       style="opacity:1;fill:#ffffff;stroke-width:0.80353"
       d="m 355.19784,510.66899 -27.25075,-26.67617 14.40728,-17.21943 c 7.924,-9.47069 21.79221,-26.02426 30.81824,-36.78571 l 16.41096,-19.56626 1.39551,2.29036 c 0.76753,1.2597 4.17876,7.26221 7.58052,13.33891 3.40175,6.0767 6.29185,11.04854 6.42244,11.04854 0.13058,0 3.79905,-6.14172 8.15216,-13.64827 4.35309,-7.50655 8.1587,-13.38237 8.45689,-13.05737 0.2982,0.325 11.82909,15.59683 25.62421,33.93742 13.79513,18.34058 25.40939,33.74925 25.80947,34.2415 0.60927,0.74964 -12.62054,18.64447 -42.26359,57.16628 -0.0876,0.11389 -5.15856,-1.98226 -11.26869,-4.65811 l -11.10934,-4.86519 -6.89694,2.96476 c -3.79331,1.63062 -9.62859,4.1348 -12.96727,5.56484 l -6.07034,2.60007 z"
       id="path134"
       transform="scale(0.26458333)" />
    <path
       style="opacity:1;fill:#ffffff;stroke-width:0.80353"
       d="m 269.35676,555.82085 c -1.17242,-2.76213 -2.13064,-5.30603 -2.12937,-5.65311 0.002,-0.60658 58.48013,-64.24371 59.41503,-64.65692 0.25138,-0.11111 12.48151,11.82647 27.17808,26.52796 l 26.72104,26.72996 -7.66917,10.43444 -7.66917,10.43444 -19.05524,0.49376 c -10.48038,0.27156 -31.5662,0.54275 -46.85738,0.60264 l -27.80214,0.1089 z"
       id="path136"
       transform="scale(0.26458333)" />
    <path
       style="opacity:1;fill:#ffffff;stroke-width:0.80353"
       d="m 298.91347,619.02267 c -16.76316,-15.28891 -30.93989,-28.23805 -31.50383,-28.77586 -0.82686,-0.78854 -0.53222,-2.09435 1.5219,-6.74495 l 2.54727,-5.76709 14.14694,0.40117 c 7.78081,0.22064 28.84073,0.61993 46.7998,0.8873 l 32.65287,0.48613 6.52935,6.56344 6.52934,6.56344 -23.77959,27.09221 c -13.07877,14.90072 -24.04643,27.09221 -24.37258,27.09221 -0.32614,0 -14.3083,-12.5091 -31.07147,-27.798 z"
       id="path138"
       transform="scale(0.26458333)" />
    <path
       style="opacity:1;fill:#ffffff;stroke-width:0.80353"
       d="m 371.82375,699.6528 c -45.16379,-56.73008 -40.45502,-50.39073 -38.88809,-52.35439 5.13803,-6.43894 47.01715,-53.51074 47.60776,-53.51074 0.40357,0 5.94102,1.45394 12.30543,3.23098 l 11.57167,3.23098 11.91473,-3.2078 c 6.55311,-1.7643 11.96025,-3.12784 12.0159,-3.0301 0.0556,0.0977 9.99246,11.38695 22.08183,25.08714 12.08939,13.7002 22.52726,25.55547 23.1953,26.34505 1.11853,1.32205 -0.84718,4.51379 -24.85042,40.34993 -14.33576,21.40289 -26.30162,38.9267 -26.59079,38.9418 -0.28917,0.0151 -3.54347,-4.6586 -7.23178,-10.38603 -3.6883,-5.72743 -7.06759,-10.42612 -7.50953,-10.44154 -0.44194,-0.0154 -4.03562,4.67066 -7.98594,10.41351 -3.95033,5.74284 -7.28657,10.44154 -7.41386,10.44154 -0.12729,0 -9.22729,-11.29965 -20.22221,-25.11033 z"
       id="path140"
       transform="scale(0.26458333)" />
    <path
       style="opacity:1;fill:#ffffff;stroke-width:0.80353"
       d="m 453.53051,619.5368 c -12.52004,-14.13125 -22.84485,-25.97697 -22.94401,-26.32381 -0.0992,-0.34684 4.71729,-3.97532 10.70323,-8.06328 l 10.88353,-7.43265 h 44.00785 44.00785 l 2.20664,5.19202 c 1.21365,2.85561 2.08147,5.5241 1.92849,5.92998 -0.15299,0.40587 -12.75296,10.96658 -27.99995,23.46824 -15.24699,12.50166 -30.49113,25.02359 -33.87586,27.8265 l -6.15405,5.0962 z"
       id="path142"
       transform="scale(0.26458333)" />
    <path
       style="opacity:1;fill:#ffffff;stroke-width:0.80353"
       d="m 485.66407,561.84764 -33.47243,-0.2187 -9.78256,-11.99099 c -5.38041,-6.59504 -9.84361,-12.14022 -9.91822,-12.32261 -0.0746,-0.1824 9.08486,-12.38193 20.35437,-27.11007 11.26952,-14.72814 20.91161,-27.34714 21.42687,-28.04221 0.80865,-1.09084 1.68939,-0.54958 6.43618,3.95535 3.02464,2.87052 8.42886,7.97744 12.00939,11.34872 l 6.51004,6.12959 -4.69307,3.51277 c -2.58119,1.93203 -4.70071,3.78086 -4.71004,4.10852 -0.009,0.32766 2.42376,-0.35135 5.40686,-1.50891 2.98311,-1.15756 6.03564,-2.14882 6.7834,-2.2028 0.74903,-0.0541 11.27387,9.09243 23.43697,20.36768 19.82998,18.38247 21.99122,20.6319 21.23078,22.09709 -0.46565,0.89719 -2.25971,4.07197 -3.98681,7.05508 l -3.14017,5.42383 -10.20957,-0.19183 c -5.61526,-0.1055 -25.27216,-0.29023 -43.68199,-0.41051 z"
       id="path144"
       transform="scale(0.26458333)" />
  </g>
</svg>
